<svg width="24" height="24" viewBox="0 0 24 24" fill="none" xmlns="http://www.w3.org/2000/svg">
<g clip-path="url(#clip0_3966_23543)">
<path d="M12 24C18.6274 24 24 18.6274 24 12C24 5.37258 18.6274 0 12 0C5.37258 0 0 5.37258 0 12C0 18.6274 5.37258 24 12 24Z" fill="#4A6EA9"/>
<path d="M10.4906 12.5867H8.92116C8.67485 12.5867 8.58643 12.4967 8.58643 12.2488C8.58643 11.6099 8.58643 10.9715 8.58643 10.3336C8.58643 10.0873 8.67958 9.99411 8.92274 9.99411H10.4906V8.61253C10.472 7.99194 10.6209 7.37779 10.9217 6.83463C11.2343 6.28628 11.7353 5.86999 12.3317 5.66306C12.7187 5.52224 13.1278 5.45166 13.5396 5.45463H15.0917C15.3143 5.45463 15.4075 5.55253 15.4075 5.77042V7.572C15.4075 7.79779 15.3127 7.88779 15.0917 7.88779C14.667 7.88779 14.2422 7.88779 13.8191 7.90516C13.3959 7.92253 13.1654 8.11516 13.1654 8.55727C13.1559 9.03095 13.1654 9.49516 13.1654 9.97832H14.9891C15.248 9.97832 15.3364 10.0667 15.3364 10.3273C15.3364 10.9588 15.3364 11.5936 15.3364 12.2315C15.3364 12.4888 15.2543 12.5694 14.9938 12.571H13.1559V17.7088C13.1559 17.9836 13.0706 18.0704 12.7991 18.0704H10.8222C10.5838 18.0704 10.4906 17.9773 10.4906 17.7388V12.5867Z" fill="white"/>
</g>
<defs>
<clipPath id="clip0_3966_23543">
<rect width="24" height="24" fill="white"/>
</clipPath>
</defs>
</svg>
