<svg xmlns="http://www.w3.org/2000/svg" width="109" height="46" viewBox="0 0 109 46" fill="none">
  <path d="M36.0087 20.125V8.05H40.749C41.5529 8.05 42.2301 8.18225 42.7806 8.44675C43.3312 8.71125 43.7441 9.07925 44.0194 9.55075C44.3057 10.0107 44.4488 10.5455 44.4488 11.155C44.4488 11.7645 44.3222 12.2762 44.0689 12.6902C43.8157 13.1042 43.4798 13.4262 43.0614 13.6562C42.654 13.8747 42.2025 14.0012 41.707 14.0357L41.9713 13.846C42.4998 13.869 42.9678 14.0185 43.3752 14.2945C43.7937 14.559 44.1185 14.9155 44.3497 15.364C44.592 15.8125 44.7131 16.3013 44.7131 16.8302C44.7131 17.4743 44.5645 18.0435 44.2672 18.538C43.9698 19.0325 43.5404 19.4235 42.9788 19.711C42.4173 19.987 41.729 20.125 40.9142 20.125H36.0087ZM38.2385 18.2275H40.5508C41.1565 18.2275 41.6244 18.0837 41.9548 17.7962C42.2851 17.5087 42.4503 17.0947 42.4503 16.5543C42.4503 16.0138 42.2796 15.594 41.9383 15.295C41.5969 14.9845 41.1234 14.8292 40.5178 14.8292H38.2385V18.2275ZM38.2385 13.087H40.3857C40.9693 13.087 41.4097 12.949 41.707 12.673C42.0153 12.397 42.1695 12.006 42.1695 11.5C42.1695 11.0055 42.0153 10.6202 41.707 10.3442C41.4097 10.0567 40.9638 9.913 40.3692 9.913H38.2385V13.087Z" fill="#FE5C4D"/>
  <path d="M51.5002 20.332C50.377 20.332 49.386 20.0675 48.5271 19.5385C47.6683 19.0095 46.9966 18.2792 46.5121 17.3477C46.0276 16.4047 45.7853 15.318 45.7853 14.0875C45.7853 12.857 46.0276 11.776 46.5121 10.8445C46.9966 9.9015 47.6683 9.1655 48.5271 8.6365C49.386 8.1075 50.377 7.843 51.5002 7.843C52.6344 7.843 53.6309 8.1075 54.4897 8.6365C55.3486 9.1655 56.0148 9.9015 56.4883 10.8445C56.9728 11.776 57.215 12.857 57.215 14.0875C57.215 15.318 56.9728 16.4047 56.4883 17.3477C56.0148 18.2792 55.3486 19.0095 54.4897 19.5385C53.6309 20.0675 52.6344 20.332 51.5002 20.332ZM51.5002 18.2447C52.2049 18.2447 52.8105 18.078 53.3171 17.7445C53.8346 17.3995 54.2365 16.9165 54.5228 16.2955C54.8091 15.6745 54.9522 14.9385 54.9522 14.0875C54.9522 13.225 54.8091 12.489 54.5228 11.8795C54.2365 11.2585 53.8346 10.7812 53.3171 10.4477C52.8105 10.1142 52.2049 9.9475 51.5002 9.9475C50.8065 9.9475 50.2009 10.1142 49.6833 10.4477C49.1658 10.7812 48.7639 11.2585 48.4776 11.8795C48.1913 12.489 48.0482 13.225 48.0482 14.0875C48.0482 14.9385 48.1913 15.6745 48.4776 16.2955C48.7639 16.9165 49.1658 17.3995 49.6833 17.7445C50.2009 18.078 50.8065 18.2447 51.5002 18.2447Z" fill="#FE5C4D"/>
  <path d="M64.0762 20.332C62.953 20.332 61.962 20.0675 61.1032 19.5385C60.2443 19.0095 59.5726 18.2792 59.0881 17.3477C58.6036 16.4047 58.3613 15.318 58.3613 14.0875C58.3613 12.857 58.6036 11.776 59.0881 10.8445C59.5726 9.9015 60.2443 9.1655 61.1032 8.6365C61.962 8.1075 62.953 7.843 64.0762 7.843C65.2104 7.843 66.2069 8.1075 67.0658 8.6365C67.9246 9.1655 68.5908 9.9015 69.0643 10.8445C69.5488 11.776 69.7911 12.857 69.7911 14.0875C69.7911 15.318 69.5488 16.4047 69.0643 17.3477C68.5908 18.2792 67.9246 19.0095 67.0658 19.5385C66.2069 20.0675 65.2104 20.332 64.0762 20.332ZM64.0762 18.2447C64.7809 18.2447 65.3865 18.078 65.8931 17.7445C66.4106 17.3995 66.8125 16.9165 67.0988 16.2955C67.3851 15.6745 67.5282 14.9385 67.5282 14.0875C67.5282 13.225 67.3851 12.489 67.0988 11.8795C66.8125 11.2585 66.4106 10.7812 65.8931 10.4477C65.3865 10.1142 64.7809 9.9475 64.0762 9.9475C63.3825 9.9475 62.7769 10.1142 62.2593 10.4477C61.7418 10.7812 61.3399 11.2585 61.0536 11.8795C60.7673 12.489 60.6242 13.225 60.6242 14.0875C60.6242 14.9385 60.7673 15.6745 61.0536 16.2955C61.3399 16.9165 61.7418 17.3995 62.2593 17.7445C62.7769 18.078 63.3825 18.2447 64.0762 18.2447Z" fill="#FE5C4D"/>
  <path d="M71.3172 20.125V8.05H73.547V12.8282L77.7258 8.05H80.4676L76.2228 12.8282L80.5997 20.125H77.8745L74.6206 14.6395L73.547 15.847V20.125H71.3172Z" fill="#FE5C4D"/>
  <path d="M85.2429 20.125V8.05H87.9021L91.4368 15.5882L94.9383 8.05H97.5976V20.125H95.3678V12.0175L92.3122 18.4345H90.5448L87.4727 12.0175V20.125H85.2429Z" fill="#FE5C4D"/>
  <path d="M102.486 20.125V15.8815L98.588 8.05H101.115L103.84 14.0185H103.394L106.103 8.05H108.614L104.716 15.8815V20.125H102.486Z" fill="#FE5C4D"/>
  <path d="M36.3253 39.2917V23.8625H41.8548C43.0507 23.8625 44.0426 24.0756 44.8306 24.5017C45.6185 24.9278 46.2024 25.5009 46.5823 26.221C46.9622 26.941 47.1521 27.7639 47.1521 28.6896C47.1521 29.5419 46.9692 30.3281 46.6034 31.0481C46.2376 31.7681 45.6607 32.3559 44.8728 32.8114C44.0849 33.2522 43.0788 33.4727 41.8548 33.4727H39.1744V39.2917H36.3253ZM39.1744 31.0701H41.6859C42.6005 31.0701 43.2547 30.8571 43.6487 30.4309C44.0567 29.9901 44.2607 29.4097 44.2607 28.6896C44.2607 27.9255 44.0567 27.3377 43.6487 26.9263C43.2547 26.5002 42.6005 26.2871 41.6859 26.2871H39.1744V31.0701Z" fill="#FE5C4D"/>
  <path d="M48.9129 39.2917V23.8625H51.7621V36.9773H58.2413V39.2917H48.9129Z" fill="#FE5C4D"/>
  <path d="M59.3132 39.2917L64.7161 23.8625H67.9452L73.3269 39.2917H70.3089L66.3201 27.2569L62.3102 39.2917H59.3132ZM61.6981 35.787L62.4579 33.4727H69.9712L70.7099 35.787H61.6981Z" fill="#FE5C4D"/>
  <path d="M76.9602 39.2917V33.8694L71.9794 23.8625H75.2084L78.6908 31.4889H78.1209L81.5821 23.8625H84.7901L79.8093 33.8694V39.2917H76.9602Z" fill="#FE5C4D"/>
  <path d="M86.1606 39.2917V23.8625H95.8689V26.265H89.0098V30.2987H95.2357V32.613H89.0098V36.8891H95.8689V39.2917H86.1606Z" fill="#FE5C4D"/>
  <path d="M98.0888 39.2917V23.8625H103.597C104.793 23.8625 105.778 24.0756 106.552 24.5017C107.326 24.9278 107.903 25.5009 108.282 26.221C108.662 26.9263 108.852 27.7124 108.852 28.5794C108.852 29.4023 108.669 30.1738 108.304 30.8938C107.938 31.5991 107.361 32.1722 106.573 32.613C105.799 33.0392 104.8 33.2522 103.576 33.2522H100.938V39.2917H98.0888ZM105.75 39.2917L102.711 32.5028H105.792L109 39.2917H105.75ZM100.938 31.0922H103.428C104.287 31.0922 104.92 30.8717 105.328 30.4309C105.736 29.9901 105.94 29.4097 105.94 28.6896C105.94 27.9696 105.736 27.4039 105.328 26.9924C104.934 26.5663 104.301 26.3532 103.428 26.3532H100.938V31.0922Z" fill="#FE5C4D"/>
  <path d="M31.1986 43.2376C28.5966 43.2784 26.3135 43.3192 24.3109 43.3601C24.6553 43.224 24.7063 43.0743 24.7063 43.0743C24.7063 43.0743 24.8594 42.8566 24.3109 42.6116C23.7625 42.3667 23.2268 41.7135 22.8951 41.7543C22.5763 41.7952 22.2574 41.9176 22.0533 41.9176C22.0533 41.9176 22.4615 41.7135 22.6655 41.5094C22.6655 41.5094 21.6324 41.8496 21.0329 41.5774C21.0329 41.5774 21.4666 41.3733 21.862 41.1012C21.862 41.1012 21.811 40.7201 21.3518 40.8154C20.8926 40.897 20.6248 41.142 20.1783 41.1692C19.7319 41.1964 19.5023 41.1148 19.5023 41.1148C19.5023 41.1148 20.0763 40.7473 20.4972 40.584C20.8416 40.448 21.4156 40.3799 21.4156 40.3799C21.5176 40.3255 21.862 39.3049 23.6349 36.2567C23.941 35.7396 24.4895 34.9095 24.8849 34.2972C25.2676 33.6984 25.5864 32.9636 25.5354 32.5009C25.4844 32.0111 24.9742 29.9563 24.0176 29.2487C23.0737 28.541 22.589 28.1464 22.589 28.1464C22.589 28.1464 23.3288 28.3914 23.8645 28.7724C24.4002 29.1534 24.7956 29.1534 24.7956 29.1534C24.7956 29.1534 24.4385 28.4458 24.3109 28.1464C24.1834 27.847 22.9079 27.1667 22.487 27.0578C22.0788 26.9489 20.4717 27.9831 20.1401 28.5274C20.1911 28.3097 20.2804 28.1056 20.3824 27.9559C20.7268 27.4796 21.7727 26.8401 21.7727 26.8401C21.7727 26.8401 19.6936 27.5068 18.9921 28.4866C18.9921 28.4866 19.885 26.8945 21.4283 26.2413C22.3467 25.8467 23.265 25.9011 23.265 25.9011C22.7803 25.0574 21.2115 23.0298 21.1987 23.0298C19.8212 22.7305 17.0279 23.302 17.0279 23.302C17.4998 22.9482 18.9794 22.6624 19.7702 22.5264C20.0763 22.4719 20.2931 22.4447 20.2931 22.4447C20.2931 22.4447 20.2931 22.3631 20.2804 22.2134C20.2293 21.5874 19.885 18.8114 19.4258 17.4506C18.788 15.5455 18.0993 14.0622 18.0993 14.0622C18.0993 14.0622 18.9794 15.0012 19.8722 16.3347C20.4717 17.2329 20.8543 18.825 20.8543 18.825C20.5865 15.736 18.3544 12.1707 18.3544 12.1707C19.5406 13.1505 20.612 14.661 21.3135 15.9401C21.1605 13.1233 20.4079 10.6739 19.413 9.96625C19.7574 10.1976 20.5992 10.7827 21.0584 11.5448C21.0584 11.5448 21.8875 10.3337 22.2956 9.84377C22.8569 9.17699 23.4181 8.75514 23.4181 8.75514C23.4181 8.75514 23.3926 8.6871 23.3416 8.57824C23.4308 8.48298 23.5201 8.37412 23.6222 8.26526C24.1706 7.72094 24.2854 7.40796 24.2854 7.40796C24.0048 7.61208 23.5074 7.73455 23.5074 7.73455C23.5074 7.73455 24.0303 7.33992 24.3619 6.93168C24.6936 6.53705 24.8977 6.2785 24.8977 6.2785C24.7574 6.65953 24.6681 7.05415 24.6681 7.05415C24.9232 6.91808 25.5864 6.6187 26.1094 5.77501C26.6323 4.91771 27.4486 3.74743 27.7803 3.29837C28.1119 2.84931 28.5201 2.12809 28.5201 2.12809C28.5201 2.40025 28.5711 2.86292 28.5711 2.86292C28.6859 2.72684 29.2216 2.26417 29.2854 2.20974C29.4767 2.08727 29.9359 2.03283 30.0124 1.9784C30.1399 1.86954 30.1527 1.6246 30.1527 1.6246C30.0634 1.74707 29.8466 1.77428 29.8466 1.77428C29.9104 1.65181 30.0762 1.65181 30.0379 1.33883C30.0124 1.16193 29.8721 1.02585 29.8721 1.02585C29.8721 1.02585 29.9486 1.66542 29.719 1.67903L29.1706 1.74707C29.1706 1.74707 29.5022 1.61099 29.5787 1.44769C29.6553 1.29801 29.5532 0.848946 29.4639 0.740083C29.3619 0.644828 29.043 0.535964 29.094 0.522356C29.1451 0.508748 29.5787 0.359062 29.7445 0.331846C29.9104 0.30463 30.0379 0.182158 29.8721 0.0869029C29.7063 -0.00835246 29.1068 0.00525566 29.1068 0.00525566C28.8262 -0.049176 28.4435 0.331845 28.2777 0.56318C28.1119 0.794514 28.1884 1.17554 28.1119 1.6246C28.0354 2.08727 27.2701 2.86292 27.2701 2.86292C27.3976 2.57715 27.4614 2.12809 27.4614 2.12809C27.4614 2.12809 26.6451 2.95817 25.7267 3.27115C24.8084 3.58414 23.6094 4.78163 23.0482 5.43481C22.7803 5.7478 22.3977 5.97913 22.0023 6.18325C22.5252 6.4418 22.7676 7.23106 22.8696 7.58486C22.8951 7.68012 22.9079 7.74816 22.9206 7.76176C22.9206 7.76176 22.4997 7.17663 22.0661 6.90447C21.7854 6.72757 21.5176 6.60509 21.3008 6.53705C21.1349 6.48262 21.0074 6.4418 20.9309 6.42819L19.0431 7.08137C18.9794 6.9589 18.8391 6.86364 18.8391 6.86364C18.8263 7.23106 18.5584 8.30608 18.0227 8.90483C17.9207 9.0273 17.7676 9.14977 17.6273 9.25863C17.436 9.34028 17.2574 9.0273 17.2957 8.91844C17.3212 8.8504 17.6018 8.79597 17.6018 8.79597C17.6018 8.79597 17.4615 8.72793 17.3467 8.72793C17.1937 8.72793 17.0406 8.71432 17.0406 8.71432C17.0406 8.71432 17.2957 8.56463 17.487 8.55102C17.6784 8.53742 17.959 8.46938 17.959 8.46938C17.959 8.46938 17.7549 8.38773 17.5763 8.3333C17.385 8.27887 17.0916 8.25165 17.0916 8.25165C17.0916 8.25165 17.0916 8.25165 17.2064 8.12918C17.3212 8.00671 17.6273 7.80259 17.6273 7.80259L17.283 6.68674C17.283 6.68674 17.1427 6.57788 16.9768 6.55066C16.811 6.52345 16.3008 6.31933 16.3008 6.31933L17.0023 6.33293L16.7345 4.98575C16.7345 4.98575 17.2319 5.08101 17.5253 5.01297C17.8059 4.95854 18.4819 4.50947 18.4819 4.50947L18.8901 5.51646C18.8901 5.51646 18.8646 4.93132 18.8263 4.68638C18.788 4.44144 18.5712 3.52971 18.4692 3.33919C18.2906 3.03982 17.9079 2.86292 17.9079 2.86292C16.8493 2.40025 15.1784 2.54994 14.5789 3.66578C14.4003 4.00598 14.2473 4.50947 14.4769 5.31234C14.6299 5.81583 14.732 5.96552 14.732 5.96552C14.732 5.96552 14.3366 6.00634 14.3238 6.16964C14.3111 6.34654 14.4003 6.85004 14.6172 7.09498C14.834 7.33992 15.1401 7.57126 15.1401 7.57126C15.1401 7.57126 15.1401 7.57125 15.2677 7.96588C15.3059 8.07475 15.357 8.21083 15.4207 8.3469C15.1911 8.61906 14.8085 9.01369 14.4258 9.23142C13.8136 9.57162 12.9335 10.1568 12.8825 10.1976C12.6274 10.3609 12.4233 10.5106 12.3085 10.6466C12.6657 10.497 13.0738 10.3609 13.4182 10.2384C13.8136 10.1023 14.1197 10.0071 14.1197 10.0071C14.1197 10.0071 14.0049 10.1023 13.8136 10.252C13.584 10.4289 13.2524 10.6603 12.8315 10.9188C12.1044 11.3543 11.2244 12.2388 10.8034 12.7967C10.2295 13.6132 9.71927 14.3344 9.71927 14.3344C9.71927 14.3344 9.92335 14.4296 10.1784 14.5793C9.99988 15.1373 9.60448 16.3892 9.38764 16.743C9.10703 17.192 8.80091 17.75 8.80091 17.75L9.11979 17.6683C9.52795 17.6547 9.88508 17.9269 9.88508 17.9269C9.88508 17.9269 8.87744 18.4304 8.27796 19.3013C7.67848 20.1722 7.66572 21.288 7.66572 21.288C7.51266 21.1247 7.11726 20.7301 6.91318 20.5124C6.90043 20.5532 6.88767 20.594 6.87492 20.6349C6.86216 20.6621 6.84941 20.6893 6.84941 20.7165C6.93869 21.1247 7.09175 21.7915 7.23206 22.0501C7.58919 22.6896 8.27796 23.1659 8.27796 23.1659C8.27796 23.1659 6.83665 22.4855 6.42849 21.9004C6.42849 21.9004 6.64533 22.6352 7.00247 23.1251C6.93869 23.1115 6.87492 23.0843 6.81114 23.0571C6.5688 22.9618 6.32645 22.7713 6.12238 22.5536C6.09686 22.9618 6.18615 23.1659 6.37747 23.302C6.60706 23.4653 6.64533 23.615 6.88767 23.6422C7.13002 23.6694 7.02798 23.6694 7.34685 23.8735C7.66572 24.064 7.53817 23.7102 7.8698 23.8055C8.20143 23.9144 8.22694 23.6966 8.22694 23.6966C8.22694 23.6966 8.48204 23.8735 8.59684 23.7238C8.69887 23.5606 8.67336 23.3156 8.74989 22.8529C8.82642 22.3903 8.71163 22.4039 8.49479 22.1317C8.29072 21.8596 8.06113 21.533 8.06113 21.533C8.06113 21.533 8.15041 21.0703 8.50755 20.6485C8.86469 20.213 9.48968 19.8048 9.84682 19.4374C10.2422 19.0427 10.255 18.6753 10.4846 18.3215C10.7269 17.7772 10.6631 17.6411 10.9055 17.124C10.9437 17.0288 11.5687 16.4164 11.4795 16.2123C11.2371 15.7088 10.9693 15.2597 10.7397 14.9195C10.8162 14.974 10.8927 15.042 10.9565 15.0964C11.4284 15.5183 11.9131 16.049 11.9131 16.049C11.9131 16.049 12.3085 15.5591 12.6529 15.1781C12.6529 15.1781 13.3162 14.5521 14.5024 13.0961C14.5024 13.0961 13.9412 14.5929 13.6478 15.3142C13.6478 15.3278 13.635 15.3414 13.635 15.355C14.1452 14.9603 14.6809 14.4841 14.6809 14.4841C14.6809 14.4841 13.4054 16.6613 13.1121 17.9405C13.0866 18.4032 13.2907 19.8456 13.1504 20.6893C13.2269 20.6485 13.2907 20.6212 13.3672 20.594C14.3111 20.2266 15.5993 20.2538 15.5993 20.2538C15.2677 20.3083 14.8595 20.4443 14.4386 20.6212C13.6605 20.9478 12.857 21.4377 12.5254 21.846L12.4871 21.8732C12.2958 22.1725 12.1427 22.4447 12.0662 22.6216C12.0662 22.6216 12.4998 22.2406 13.2524 22.0093L13.2396 22.0229C13.635 21.9004 14.4003 21.7099 15.3314 21.5738C16.4666 21.4241 17.9207 21.6963 18.4181 21.8051C18.5329 21.8323 18.5967 21.846 18.5967 21.846C18.5584 21.846 18.5329 21.846 18.4947 21.846C17.0406 21.7507 16.0202 21.7915 14.5661 22.2406C14.1452 22.3767 13.5458 22.6488 12.9973 22.921L12.9845 22.9074C12.9845 22.9074 12.5764 23.1115 12.1555 23.3428C11.9641 23.4381 11.7728 23.5469 11.6325 23.6422C11.5305 23.7102 11.4412 23.7647 11.3774 23.8055C11.1861 23.9552 10.9565 24.7717 10.7907 25.4248C10.1402 26.459 9.37489 27.6429 9.37489 27.6429C9.37489 27.6429 8.40551 29.0173 8.21419 29.4392C8.21419 29.4392 7.75501 29.6433 7.04073 30.1196C7.04073 30.1196 7.51266 29.3847 8.17592 29.1398C8.17592 29.1398 7.56368 28.9629 7.27032 29.1398C7.27032 29.1398 7.42338 28.6363 8.06113 28.5002C8.06113 28.5002 7.58919 27.7654 7.00247 27.4116C6.79839 27.2891 6.63257 27.1122 6.47951 26.9217C6.37747 26.4999 6.61982 26.4318 6.76012 26.078C6.92594 25.6153 6.78563 25.3024 6.39023 25.1391C5.99483 24.9894 4.84688 25.2888 4.84688 25.2888C4.84688 25.2888 5.44636 24.8805 5.90554 24.8397C5.90554 24.8397 4.74484 24.7308 3.60965 24.4179C2.66578 24.1593 1.91324 24.1865 1.21172 24.4723C0.624992 24.7036 0.969376 25.3976 1.301 25.6562C1.63263 25.9147 2.0663 26.1324 2.0663 26.1324C2.0663 26.1324 1.90049 25.6426 2.44895 25.3976C2.44895 25.3976 2.23212 25.9283 2.34691 26.3366L2.58925 26.4863C2.58925 26.4863 2.47446 25.8331 3.06119 25.5473C3.06119 25.5473 2.76782 26.2549 2.86986 26.6496L3.29078 26.8128C3.29078 26.8128 3.31629 25.8467 3.90301 25.6153C3.90301 25.6153 3.58414 26.4726 3.81373 26.8945C3.92852 27.0986 4.1326 27.2075 4.45148 27.2619C4.54076 27.3708 4.63005 27.466 4.69382 27.5613C4.91065 27.9287 5.02545 29.3303 5.53565 30.3373C6.04585 31.3307 6.91318 32.8275 7.81878 33.1133C8.72438 33.3855 9.73202 32.8003 10.5483 32.0383L11.3009 31.2762C11.3009 31.2762 10.5866 31.0313 10.1019 30.4053C10.1019 30.4053 10.5866 30.5142 10.88 30.6094C11.1733 30.7183 11.9259 30.7864 11.9259 30.7864C11.9259 30.7864 10.8545 29.9835 10.4973 29.6705C10.2932 29.4936 10.1274 28.8132 10.0254 28.2825C10.7269 28.9901 11.8111 30.0651 12.283 30.3917C13.1886 31.0177 13.584 30.9496 13.584 30.9496C13.584 30.9496 15.3059 28.786 15.8799 28.3097C15.8799 28.3097 14.2218 28.5683 12.9463 28.6091C12.9463 28.6091 14.834 27.9559 15.8034 27.4796C15.8034 27.4796 14.4258 27.2755 13.7881 27.4388C13.7881 27.4388 15.4462 27.0034 16.6069 26.4318C17.7676 25.8739 19.9487 25.071 20.6248 25.0846C20.6248 25.0846 18.2141 25.7786 17.3977 26.7856C17.3977 26.7856 18.2651 26.6223 18.7498 26.704C18.7498 26.704 17.0916 27.9423 16.8748 28.2689C16.8748 28.2689 18.2013 29.7522 18.9539 30.555C19.7064 31.3579 20.8288 31.5892 20.8288 31.5892C20.8288 31.5892 20.5227 31.1946 20.2293 30.2693C20.1146 29.9154 20.0635 29.5616 20.0508 29.2351C20.1273 29.5753 20.3314 29.9563 20.5737 30.3781C20.8799 30.8816 22.0788 32.2288 22.1809 32.4193C22.8824 31.8478 23.4053 31.8478 23.4053 31.8478C23.0865 32.0655 22.3849 32.8003 22.3849 32.8003C22.3849 32.8003 21.2242 34.3108 20.8543 35.1817C20.4844 36.0662 20.0253 37.8897 19.7957 38.3524C19.7957 38.3524 21.3008 36.0118 21.811 35.1273C21.811 35.1273 20.9691 37.2229 20.3059 38.5429C19.6809 39.7948 19.2982 40.5296 19.1197 40.8562C18.9921 41.0875 18.8773 41.3053 18.6988 41.6591C18.686 41.6591 18.686 41.6727 18.6732 41.6863C18.584 41.8496 18.4947 42.0265 18.4309 42.1762C18.4054 42.2306 18.3799 42.285 18.3671 42.3395C18.3416 42.4211 17.959 43.1423 18.4819 43.4009C9.92335 43.5506 9.88508 43.5506 9.2856 43.5642C8.71163 44.3398 7.83154 44.8297 6.8239 44.8297C6.23717 44.8297 5.67595 44.6528 5.20402 44.3534C5.59942 44.5576 6.03309 44.6664 6.49227 44.6664C7.39787 44.6664 8.20143 44.2446 8.74989 43.5778C9.22183 43.0063 9.51519 42.2578 9.51519 41.4277C9.51519 40.3391 9.01775 39.3866 8.25245 38.8014C8.22694 38.8014 6.13513 38.7062 5.10198 40.3391C5.10198 40.3391 5.22953 39.1008 5.96932 38.3932C6.02034 38.3387 6.07135 38.2979 6.12238 38.2571C6.00758 38.3115 5.90554 38.3796 5.79075 38.4476C4.79586 39.1008 4.10709 40.2575 4.10709 42.1762C4.10709 42.1762 3.76271 41.1964 4.08158 39.9581C4.15811 39.6587 4.27291 39.3457 4.43872 39.0327C3.83924 39.6179 3.45659 40.4752 3.45659 41.4141C3.45659 42.5708 4.03056 43.5778 4.88514 44.1493L0 46L31.1986 43.2376Z" fill="#FE5C4D"/>
  <path d="M18.8525 6.18325C18.8525 6.18325 18.6484 6.31944 18.355 6.41477C18.0489 6.52372 17.577 6.60543 17.577 6.60543C17.577 6.60543 17.6918 6.86419 17.9979 6.91867C18.1637 6.9459 18.6484 6.78248 18.6484 6.78248C18.5336 6.78248 18.3806 6.70077 18.3806 6.70077C18.5464 6.63267 18.8525 6.18325 18.8525 6.18325Z" fill="#FE5C4D"/>
</svg>