<svg width="16" height="16" viewBox="0 0 16 16" fill="none" xmlns="http://www.w3.org/2000/svg">
<g id="fi_3869744" clip-path="url(#clip0_5532_6197)">
<path id="Vector" fill-rule="evenodd" clip-rule="evenodd" d="M3.70025 4.24537C3.78031 4.4159 3.95041 4.52512 4.13909 4.52512H6.49625V5.35777C6.49625 5.62565 6.71353 5.84265 6.98225 5.84265C7.24956 5.84265 7.46684 5.62565 7.46684 5.35777V4.52512H7.68984C7.95856 4.52512 8.17441 4.30812 8.17441 4.04011C8.17441 3.7724 7.95856 3.5554 7.68984 3.5554H7.46684V0.645615C7.46684 0.441646 7.33963 0.259521 7.14806 0.190209C6.95653 0.120459 6.74069 0.178053 6.61059 0.334428L3.76744 3.7289C3.64591 3.87312 3.62019 4.07471 3.70025 4.24537ZM16 7.96877C16 10.1049 15.1682 12.1151 13.6576 13.6257C12.1469 15.1364 10.1365 15.9688 8 15.9688C5.86353 15.9688 3.85313 15.1364 2.34241 13.6257C0.831813 12.1151 0 10.1049 0 7.96877C0 7.56733 0.3255 7.24133 0.727 7.24133C1.12925 7.24133 1.454 7.56668 1.454 7.96877C1.454 11.5775 4.39141 14.5142 7.99997 14.5142C11.6086 14.5142 14.546 11.5775 14.546 7.96877C14.546 4.69555 12.1023 1.90227 8.85491 1.4788C8.45759 1.42699 8.17716 1.06096 8.22844 0.663865C8.27978 0.266397 8.64619 -0.0154473 9.04344 0.0364277C10.9582 0.286459 12.7141 1.22415 13.9937 2.67015C15.2883 4.13324 16 6.01518 16 7.96877ZM6.49622 1.97983V3.55537H5.17828L6.49622 1.97983ZM8.95059 12.2791C8.80622 12.5046 8.87197 12.8046 9.09781 12.9488C9.17784 13.0006 9.26934 13.0254 9.35797 13.0254C9.51806 13.0254 9.67387 12.9467 9.76678 12.8021L12.7858 8.08999C12.8815 7.94046 12.8872 7.75108 12.8029 7.59568C12.7171 7.44015 12.5542 7.34352 12.3769 7.34352H9.62097C9.35222 7.34352 9.13641 7.56052 9.13641 7.8284C9.13641 8.09627 9.35225 8.31327 9.62097 8.31327H11.4907L8.95059 12.2791ZM11.4893 3.36955C11.6779 3.55896 11.6779 3.86599 11.4893 4.05543L4.34206 11.2026C4.24631 11.2972 4.12337 11.3446 3.999 11.3446C3.87466 11.3446 3.75028 11.2972 3.65594 11.2026C3.46725 11.0132 3.46725 10.7063 3.65594 10.5169L10.8031 3.36955C10.9918 3.18015 11.2992 3.18015 11.4893 3.36955ZM2.98409 2.3538C3.10703 1.9044 3.02984 1.56562 2.75394 1.34718C2.44375 1.10258 1.93059 1.05958 1.58181 1.24896C1.31737 1.3929 1.20016 1.64162 1.23447 1.98799C1.25878 2.25471 1.06438 2.49174 0.797063 2.51718C0.531188 2.54233 0.293906 2.34749 0.268156 2.08105C0.198125 1.34346 0.506875 0.729803 1.11869 0.397459C1.80341 0.024084 2.74397 0.103865 3.35575 0.586865C3.93897 1.04871 4.14481 1.7859 3.92038 2.60924C3.76884 3.16502 3.24853 3.57027 2.64816 4.03968C2.32225 4.29327 1.97203 4.56627 1.679 4.8729H3.68738C3.95469 4.8729 4.17197 5.08987 4.17197 5.35777C4.17197 5.62565 3.95469 5.84265 3.68738 5.84265H0.737C0.571187 5.84265 0.415375 5.75658 0.32675 5.61508C0.238125 5.47355 0.228125 5.2963 0.301031 5.14596C0.695562 4.33274 1.416 3.77083 2.05066 3.2754C2.47662 2.94258 2.91834 2.59865 2.98409 2.3538Z" fill="#222222"/>
</g>
<defs>
<clipPath id="clip0_5532_6197">
<rect width="16" height="16" fill="white"/>
</clipPath>
</defs>
</svg>
